<svg width="636" height="333" viewBox="0 0 636 333" fill="none" xmlns="http://www.w3.org/2000/svg">
<g clip-path="url(#clip0_72_344)">
<rect width="636" height="332.133" fill="#FEC62E"/>
<g filter="url(#filter0_d_72_344)">
<rect x="289.733" y="22.6133" width="57.24" height="28.2667" fill="white"/>
<path d="M308.863 34.9445C309.286 34.4366 309.818 34.1826 310.459 34.1826C311.754 34.1826 312.411 34.9353 312.43 36.4407V40.2666H310.834V36.4848C310.834 36.1425 310.76 35.8904 310.613 35.7285C310.466 35.5629 310.221 35.48 309.879 35.48C309.411 35.48 309.073 35.6604 308.863 36.0211V40.2666H307.268V31.7866H308.863V34.9445ZM315.543 32.8245V34.2931H316.565V35.4635H315.543V38.4447C315.543 38.6656 315.586 38.8238 315.67 38.9195C315.755 39.0152 315.917 39.0631 316.156 39.0631C316.333 39.0631 316.489 39.0502 316.625 39.0244V40.2335C316.312 40.3292 315.99 40.377 315.659 40.377C314.54 40.377 313.97 39.8121 313.948 38.6821V35.4635H313.075V34.2931H313.948V32.8245H315.543ZM318.95 34.2931L318.999 34.9611C319.423 34.4421 319.995 34.1826 320.716 34.1826C321.486 34.1826 322.014 34.4863 322.301 35.0936C322.72 34.4863 323.318 34.1826 324.095 34.1826C324.743 34.1826 325.225 34.3722 325.541 34.7513C325.858 35.1267 326.016 35.6935 326.016 36.4517V40.2666H324.415V36.4572C324.415 36.1186 324.349 35.872 324.216 35.7174C324.084 35.5592 323.85 35.48 323.515 35.48C323.037 35.48 322.706 35.7082 322.522 36.1646L322.527 40.2666H320.932V36.4627C320.932 36.1168 320.863 35.8665 320.727 35.7119C320.591 35.5573 320.359 35.48 320.032 35.48C319.579 35.48 319.251 35.6677 319.049 36.0432V40.2666H317.453V34.2931H318.95ZM328.931 40.2666H327.33V31.7866H328.931V40.2666Z" fill="#424242"/>
<rect x="291.147" y="24.0266" width="54.4133" height="25.44" stroke="black" stroke-width="2.82667"/>
</g>
<g filter="url(#filter1_d_72_344)">
<rect x="403.507" y="87.6267" width="59.36" height="28.2667" fill="white"/>
<path d="M426.462 102.348C426.462 103.305 426.258 104.053 425.85 104.59C425.441 105.124 424.871 105.39 424.138 105.39C423.49 105.39 422.973 105.142 422.587 104.645L422.515 105.28H421.08V96.8H422.675V99.842C423.043 99.4114 423.527 99.1961 424.127 99.1961C424.856 99.1961 425.426 99.4648 425.839 100.002C426.254 100.536 426.462 101.288 426.462 102.26V102.348ZM424.867 102.233C424.867 101.629 424.771 101.189 424.58 100.913C424.388 100.633 424.103 100.493 423.724 100.493C423.216 100.493 422.867 100.701 422.675 101.117V103.475C422.87 103.894 423.224 104.104 423.735 104.104C424.25 104.104 424.589 103.85 424.751 103.342C424.828 103.099 424.867 102.729 424.867 102.233ZM427.202 102.238C427.202 101.645 427.316 101.117 427.545 100.654C427.773 100.19 428.1 99.831 428.527 99.577C428.958 99.3231 429.457 99.1961 430.023 99.1961C430.829 99.1961 431.486 99.4427 431.994 99.9359C432.506 100.429 432.791 101.099 432.85 101.945L432.861 102.354C432.861 103.27 432.605 104.007 432.094 104.562C431.582 105.114 430.896 105.39 430.034 105.39C429.173 105.39 428.485 105.114 427.97 104.562C427.458 104.01 427.202 103.259 427.202 102.31V102.238ZM428.798 102.354C428.798 102.921 428.904 103.355 429.118 103.657C429.331 103.955 429.637 104.104 430.034 104.104C430.421 104.104 430.723 103.957 430.94 103.662C431.157 103.364 431.266 102.89 431.266 102.238C431.266 101.682 431.157 101.252 430.94 100.946C430.723 100.641 430.417 100.488 430.023 100.488C429.633 100.488 429.331 100.641 429.118 100.946C428.904 101.248 428.798 101.717 428.798 102.354ZM433.595 102.249C433.595 101.318 433.803 100.576 434.219 100.024C434.639 99.4721 435.211 99.1961 435.936 99.1961C436.518 99.1961 436.998 99.4132 437.377 99.8475V96.8H438.978V105.28H437.537L437.46 104.645C437.062 105.142 436.551 105.39 435.925 105.39C435.222 105.39 434.657 105.114 434.23 104.562C433.807 104.007 433.595 103.235 433.595 102.249ZM435.191 102.365C435.191 102.924 435.288 103.353 435.483 103.651C435.679 103.95 435.962 104.099 436.334 104.099C436.827 104.099 437.175 103.891 437.377 103.475V101.117C437.178 100.701 436.834 100.493 436.345 100.493C435.575 100.493 435.191 101.117 435.191 102.365ZM442.445 103.022L443.549 99.3065H445.261L442.859 106.208L442.727 106.522C442.37 107.302 441.781 107.693 440.96 107.693C440.728 107.693 440.493 107.658 440.253 107.588V106.379L440.496 106.384C440.798 106.384 441.023 106.338 441.17 106.246C441.321 106.154 441.439 106.001 441.523 105.788L441.711 105.297L439.619 99.3065H441.336L442.445 103.022Z" fill="#424242"/>
<rect x="404.92" y="89.04" width="56.5333" height="25.44" stroke="black" stroke-width="2.82667"/>
</g>
<g filter="url(#filter2_d_72_344)">
<rect x="349.8" y="177.373" width="47.3467" height="28.2667" fill="white"/>
<path d="M368.929 189.705C369.353 189.197 369.885 188.943 370.525 188.943C371.821 188.943 372.478 189.695 372.496 191.201V195.027H370.9V191.245C370.9 190.903 370.827 190.65 370.68 190.488C370.532 190.323 370.288 190.24 369.945 190.24C369.478 190.24 369.139 190.42 368.929 190.781V195.027H367.334V186.547H368.929V189.705ZM377.509 195.027H375.913V188.876L374.009 189.467V188.17L377.338 186.977H377.509V195.027Z" fill="#424242"/>
<rect x="351.213" y="178.787" width="44.52" height="25.44" stroke="black" stroke-width="2.82667"/>
</g>
<g filter="url(#filter3_d_72_344)">
<rect x="419.76" y="177.373" width="40.9867" height="28.2667" fill="white"/>
<path d="M442.71 192.095C442.71 193.015 442.5 193.753 442.08 194.309C441.665 194.861 441.101 195.137 440.391 195.137C439.787 195.137 439.3 194.927 438.928 194.508V197.323H437.333V189.053H438.812L438.867 189.638C439.254 189.175 439.758 188.943 440.38 188.943C441.116 188.943 441.688 189.215 442.097 189.76C442.506 190.304 442.71 191.055 442.71 192.012V192.095ZM441.114 191.979C441.114 191.423 441.015 190.995 440.816 190.693C440.621 190.391 440.336 190.24 439.96 190.24C439.46 190.24 439.116 190.431 438.928 190.814V193.26C439.123 193.654 439.471 193.851 439.971 193.851C440.733 193.851 441.114 193.227 441.114 191.979Z" fill="#424242"/>
<rect x="421.173" y="178.787" width="38.16" height="25.44" stroke="black" stroke-width="2.82667"/>
</g>
<g filter="url(#filter4_d_72_344)">
<rect x="420.467" y="228.253" width="40.28" height="28.2667" fill="white"/>
<path d="M441.501 245.907C441.428 245.763 441.374 245.585 441.341 245.371C440.955 245.802 440.452 246.017 439.834 246.017C439.249 246.017 438.763 245.848 438.376 245.509C437.994 245.171 437.802 244.744 437.802 244.228C437.802 243.595 438.036 243.11 438.503 242.771C438.974 242.432 439.653 242.261 440.541 242.257H441.275V241.915C441.275 241.639 441.203 241.418 441.059 241.253C440.92 241.087 440.697 241.004 440.391 241.004C440.123 241.004 439.911 241.069 439.757 241.197C439.606 241.326 439.53 241.503 439.53 241.727H437.935C437.935 241.381 438.041 241.061 438.255 240.767C438.468 240.472 438.77 240.242 439.16 240.077C439.55 239.907 439.988 239.823 440.474 239.823C441.21 239.823 441.794 240.009 442.224 240.38C442.659 240.748 442.876 241.267 442.876 241.937V244.527C442.88 245.093 442.959 245.522 443.113 245.813V245.907H441.501ZM440.182 244.797C440.417 244.797 440.634 244.746 440.833 244.642C441.032 244.536 441.179 244.394 441.275 244.217V243.19H440.679C439.88 243.19 439.455 243.467 439.403 244.019L439.398 244.112C439.398 244.311 439.468 244.475 439.607 244.604C439.747 244.733 439.939 244.797 440.182 244.797Z" fill="#424242"/>
<rect x="421.88" y="229.667" width="37.4533" height="25.44" stroke="black" stroke-width="2.82667"/>
</g>
<g filter="url(#filter5_d_72_344)">
<rect x="483.36" y="228.253" width="40.28" height="28.2667" fill="white"/>
<path d="M502.617 245.907H501.016V237.427H502.617V245.907ZM505.62 245.907H504.019V239.933H505.62V245.907ZM503.925 238.387C503.925 238.148 504.005 237.951 504.163 237.797C504.325 237.642 504.544 237.565 504.82 237.565C505.092 237.565 505.309 237.642 505.471 237.797C505.633 237.951 505.714 238.148 505.714 238.387C505.714 238.63 505.631 238.829 505.466 238.984C505.304 239.138 505.088 239.215 504.82 239.215C504.551 239.215 504.334 239.138 504.168 238.984C504.006 238.829 503.925 238.63 503.925 238.387Z" fill="#424242"/>
<rect x="484.774" y="229.667" width="37.4533" height="25.44" stroke="black" stroke-width="2.82667"/>
</g>
<g filter="url(#filter6_d_72_344)">
<rect x="546.253" y="228.253" width="40.28" height="28.2667" fill="white"/>
<path d="M565.51 245.907H563.909V237.427H565.51V245.907ZM568.513 245.907H566.912V239.933H568.513V245.907ZM566.818 238.387C566.818 238.148 566.897 237.951 567.055 237.797C567.217 237.642 567.436 237.565 567.712 237.565C567.985 237.565 568.202 237.642 568.364 237.797C568.526 237.951 568.607 238.148 568.607 238.387C568.607 238.63 568.524 238.829 568.358 238.984C568.196 239.138 567.981 239.215 567.712 239.215C567.444 239.215 567.227 239.138 567.061 238.984C566.899 238.829 566.818 238.63 566.818 238.387Z" fill="#424242"/>
<rect x="547.666" y="229.667" width="37.4533" height="25.44" stroke="black" stroke-width="2.82667"/>
</g>
<g filter="url(#filter7_d_72_344)">
<rect x="483.36" y="177.373" width="43.8133" height="28.2667" fill="white"/>
<path d="M504.511 194.419C504.117 194.898 503.572 195.137 502.876 195.137C502.236 195.137 501.747 194.953 501.408 194.585C501.073 194.217 500.902 193.678 500.894 192.967V189.053H502.49V192.912C502.49 193.534 502.773 193.845 503.34 193.845C503.881 193.845 504.253 193.657 504.455 193.282V189.053H506.056V195.027H504.555L504.511 194.419ZM508.944 195.027H507.343V186.547H508.944V195.027Z" fill="#424242"/>
<rect x="484.774" y="178.787" width="40.9867" height="25.44" stroke="black" stroke-width="2.82667"/>
</g>
<g filter="url(#filter8_d_72_344)">
<rect x="53" y="177.373" width="53.7067" height="28.2667" fill="white"/>
<path d="M72.483 187.585V189.053H73.5043V190.223H72.483V193.205C72.483 193.426 72.5253 193.584 72.61 193.68C72.6946 193.775 72.8566 193.823 73.0958 193.823C73.2725 193.823 73.4289 193.81 73.5651 193.784V194.993C73.2522 195.089 72.9302 195.137 72.5989 195.137C71.48 195.137 70.9095 194.572 70.8875 193.442V190.223H70.0152V189.053H70.8875V187.585H72.483ZM76.077 195.027H74.476V189.053H76.077V195.027ZM74.3821 187.507C74.3821 187.268 74.4613 187.071 74.6195 186.917C74.7815 186.762 75.0005 186.685 75.2765 186.685C75.5489 186.685 75.766 186.762 75.928 186.917C76.0899 187.071 76.1709 187.268 76.1709 187.507C76.1709 187.75 76.0881 187.949 75.9225 188.103C75.7605 188.258 75.5452 188.335 75.2765 188.335C75.0078 188.335 74.7907 188.258 74.6251 188.103C74.4631 187.949 74.3821 187.75 74.3821 187.507ZM79.3067 187.585V189.053H80.3281V190.223H79.3067V193.205C79.3067 193.426 79.3491 193.584 79.4337 193.68C79.5184 193.775 79.6803 193.823 79.9195 193.823C80.0962 193.823 80.2526 193.81 80.3888 193.784V194.993C80.076 195.089 79.7539 195.137 79.4227 195.137C78.3038 195.137 77.7333 194.572 77.7112 193.442V190.223H76.8389V189.053H77.7112V187.585H79.3067ZM82.9008 195.027H81.2998V186.547H82.9008V195.027ZM86.9696 195.137C86.0937 195.137 85.3796 194.868 84.8276 194.331C84.2792 193.794 84.005 193.078 84.005 192.183V192.029C84.005 191.429 84.1209 190.893 84.3528 190.422C84.5846 189.947 84.9122 189.583 85.3355 189.329C85.7624 189.071 86.2483 188.943 86.793 188.943C87.6101 188.943 88.2523 189.2 88.7198 189.716C89.1909 190.231 89.4264 190.961 89.4264 191.907V192.559H85.6226C85.6741 192.949 85.8287 193.262 86.0863 193.497C86.3476 193.733 86.677 193.851 87.0745 193.851C87.6892 193.851 88.1695 193.628 88.5155 193.183L89.2994 194.06C89.0602 194.399 88.7363 194.664 88.3278 194.855C87.9192 195.043 87.4665 195.137 86.9696 195.137ZM86.7875 190.235C86.4709 190.235 86.2133 190.341 86.0145 190.555C85.8195 190.768 85.6943 191.074 85.6391 191.471H87.8585V191.344C87.8511 190.991 87.7554 190.719 87.5714 190.527C87.3874 190.332 87.1261 190.235 86.7875 190.235Z" fill="#424242"/>
<rect x="54.4133" y="178.787" width="50.88" height="25.44" stroke="black" stroke-width="2.82667"/>
</g>
<g filter="url(#filter9_d_72_344)">
<rect x="129.32" y="177.373" width="60.0667" height="28.2667" fill="white"/>
<path d="M148.389 189.053L148.439 189.721C148.862 189.202 149.435 188.943 150.156 188.943C150.925 188.943 151.453 189.246 151.74 189.854C152.16 189.246 152.758 188.943 153.535 188.943C154.182 188.943 154.665 189.132 154.981 189.511C155.298 189.887 155.456 190.454 155.456 191.212V195.027H153.855V191.217C153.855 190.879 153.789 190.632 153.656 190.477C153.524 190.319 153.29 190.24 152.955 190.24C152.476 190.24 152.145 190.468 151.961 190.925L151.967 195.027H150.371V191.223C150.371 190.877 150.303 190.627 150.167 190.472C150.031 190.317 149.799 190.24 149.471 190.24C149.019 190.24 148.691 190.428 148.489 190.803V195.027H146.893V189.053H148.389ZM159.436 195.137C158.56 195.137 157.846 194.868 157.294 194.331C156.746 193.794 156.472 193.078 156.472 192.183V192.029C156.472 191.429 156.588 190.893 156.82 190.422C157.051 189.947 157.379 189.583 157.802 189.329C158.229 189.071 158.715 188.943 159.26 188.943C160.077 188.943 160.719 189.2 161.187 189.716C161.658 190.231 161.893 190.961 161.893 191.907V192.559H158.089C158.141 192.949 158.295 193.262 158.553 193.497C158.814 193.733 159.144 193.851 159.541 193.851C160.156 193.851 160.636 193.628 160.982 193.183L161.766 194.06C161.527 194.399 161.203 194.664 160.795 194.855C160.386 195.043 159.933 195.137 159.436 195.137ZM159.254 190.235C158.938 190.235 158.68 190.341 158.481 190.555C158.286 190.768 158.161 191.074 158.106 191.471H160.325V191.344C160.318 190.991 160.222 190.719 160.038 190.527C159.854 190.332 159.593 190.235 159.254 190.235ZM164.714 187.585V189.053H165.736V190.223H164.714V193.205C164.714 193.426 164.757 193.584 164.841 193.68C164.926 193.775 165.088 193.823 165.327 193.823C165.504 193.823 165.66 193.81 165.796 193.784V194.993C165.484 195.089 165.162 195.137 164.83 195.137C163.711 195.137 163.141 194.572 163.119 193.442V190.223H162.247V189.053H163.119V187.585H164.714ZM170.086 195.027C170.012 194.883 169.959 194.705 169.926 194.491C169.54 194.922 169.037 195.137 168.419 195.137C167.834 195.137 167.348 194.968 166.961 194.629C166.579 194.291 166.387 193.864 166.387 193.348C166.387 192.715 166.621 192.229 167.088 191.891C167.559 191.552 168.238 191.381 169.125 191.377H169.86V191.035C169.86 190.759 169.788 190.538 169.644 190.373C169.505 190.207 169.282 190.124 168.976 190.124C168.708 190.124 168.496 190.189 168.342 190.317C168.191 190.446 168.115 190.623 168.115 190.847H166.52C166.52 190.501 166.626 190.181 166.84 189.887C167.053 189.592 167.355 189.362 167.745 189.197C168.135 189.027 168.573 188.943 169.059 188.943C169.795 188.943 170.379 189.129 170.809 189.5C171.244 189.868 171.461 190.387 171.461 191.057V193.646C171.464 194.213 171.544 194.642 171.698 194.933V195.027H170.086ZM168.767 193.917C169.002 193.917 169.219 193.865 169.418 193.762C169.617 193.656 169.764 193.514 169.86 193.337V192.31H169.264C168.465 192.31 168.04 192.586 167.988 193.138L167.983 193.232C167.983 193.431 168.053 193.595 168.192 193.724C168.332 193.853 168.524 193.917 168.767 193.917Z" fill="#424242"/>
<rect x="130.734" y="178.787" width="57.24" height="25.44" stroke="black" stroke-width="2.82667"/>
</g>
<g filter="url(#filter10_d_72_344)">
<rect x="212" y="177.373" width="60.0667" height="28.2667" fill="white"/>
<path d="M231.069 189.053L231.119 189.721C231.542 189.202 232.114 188.943 232.836 188.943C233.605 188.943 234.133 189.246 234.42 189.854C234.84 189.246 235.438 188.943 236.214 188.943C236.862 188.943 237.344 189.132 237.661 189.511C237.977 189.887 238.136 190.454 238.136 191.212V195.027H236.535V191.217C236.535 190.879 236.468 190.632 236.336 190.477C236.203 190.319 235.97 190.24 235.635 190.24C235.156 190.24 234.825 190.468 234.641 190.925L234.646 195.027H233.051V191.223C233.051 190.877 232.983 190.627 232.847 190.472C232.71 190.317 232.479 190.24 232.151 190.24C231.698 190.24 231.371 190.428 231.168 190.803V195.027H229.573V189.053H231.069ZM242.116 195.137C241.24 195.137 240.526 194.868 239.974 194.331C239.426 193.794 239.151 193.078 239.151 192.183V192.029C239.151 191.429 239.267 190.893 239.499 190.422C239.731 189.947 240.059 189.583 240.482 189.329C240.909 189.071 241.395 188.943 241.939 188.943C242.757 188.943 243.399 189.2 243.866 189.716C244.337 190.231 244.573 190.961 244.573 191.907V192.559H240.769C240.821 192.949 240.975 193.262 241.233 193.497C241.494 193.733 241.824 193.851 242.221 193.851C242.836 193.851 243.316 193.628 243.662 193.183L244.446 194.06C244.207 194.399 243.883 194.664 243.474 194.855C243.066 195.043 242.613 195.137 242.116 195.137ZM241.934 190.235C241.617 190.235 241.36 190.341 241.161 190.555C240.966 190.768 240.841 191.074 240.786 191.471H243.005V191.344C242.998 190.991 242.902 190.719 242.718 190.527C242.534 190.332 242.273 190.235 241.934 190.235ZM247.394 187.585V189.053H248.415V190.223H247.394V193.205C247.394 193.426 247.436 193.584 247.521 193.68C247.606 193.775 247.768 193.823 248.007 193.823C248.184 193.823 248.34 193.81 248.476 193.784V194.993C248.163 195.089 247.841 195.137 247.51 195.137C246.391 195.137 245.821 194.572 245.799 193.442V190.223H244.926V189.053H245.799V187.585H247.394ZM252.766 195.027C252.692 194.883 252.639 194.705 252.606 194.491C252.219 194.922 251.717 195.137 251.099 195.137C250.513 195.137 250.027 194.968 249.641 194.629C249.258 194.291 249.067 193.864 249.067 193.348C249.067 192.715 249.301 192.229 249.768 191.891C250.239 191.552 250.918 191.381 251.805 191.377H252.539V191.035C252.539 190.759 252.468 190.538 252.324 190.373C252.184 190.207 251.962 190.124 251.656 190.124C251.387 190.124 251.176 190.189 251.021 190.317C250.87 190.446 250.795 190.623 250.795 190.847H249.199C249.199 190.501 249.306 190.181 249.52 189.887C249.733 189.592 250.035 189.362 250.425 189.197C250.815 189.027 251.253 188.943 251.739 188.943C252.475 188.943 253.058 189.129 253.489 189.5C253.923 189.868 254.14 190.387 254.14 191.057V193.646C254.144 194.213 254.223 194.642 254.378 194.933V195.027H252.766ZM251.446 193.917C251.682 193.917 251.899 193.865 252.098 193.762C252.297 193.656 252.444 193.514 252.539 193.337V192.31H251.943C251.145 192.31 250.719 192.586 250.668 193.138L250.662 193.232C250.662 193.431 250.732 193.595 250.872 193.724C251.012 193.853 251.203 193.917 251.446 193.917Z" fill="#424242"/>
<rect x="213.413" y="178.787" width="57.24" height="25.44" stroke="black" stroke-width="2.82667"/>
</g>
<g filter="url(#filter11_d_72_344)">
<rect x="130.026" y="91.1599" width="59.36" height="28.2667" fill="white"/>
<path d="M149.156 103.491C149.579 102.983 150.111 102.729 150.752 102.729C152.047 102.729 152.704 103.482 152.722 104.987V108.813H151.127V105.031C151.127 104.689 151.053 104.437 150.906 104.275C150.759 104.109 150.514 104.027 150.172 104.027C149.704 104.027 149.366 104.207 149.156 104.568V108.813H147.56V100.333H149.156V103.491ZM156.675 108.924C155.799 108.924 155.085 108.655 154.533 108.118C153.985 107.58 153.711 106.864 153.711 105.97V105.815C153.711 105.215 153.827 104.68 154.059 104.209C154.29 103.734 154.618 103.37 155.041 103.116C155.468 102.858 155.954 102.729 156.499 102.729C157.316 102.729 157.958 102.987 158.425 103.502C158.897 104.017 159.132 104.748 159.132 105.694V106.345H155.328C155.38 106.736 155.534 107.048 155.792 107.284C156.053 107.52 156.383 107.637 156.78 107.637C157.395 107.637 157.875 107.415 158.221 106.969L159.005 107.847C158.766 108.186 158.442 108.451 158.034 108.642C157.625 108.83 157.172 108.924 156.675 108.924ZM156.493 104.021C156.177 104.021 155.919 104.128 155.72 104.341C155.525 104.555 155.4 104.86 155.345 105.258H157.564V105.131C157.557 104.778 157.461 104.505 157.277 104.314C157.093 104.119 156.832 104.021 156.493 104.021ZM163.505 108.813C163.431 108.67 163.378 108.491 163.345 108.278C162.958 108.708 162.456 108.924 161.837 108.924C161.252 108.924 160.766 108.754 160.38 108.416C159.997 108.077 159.806 107.65 159.806 107.135C159.806 106.502 160.039 106.016 160.507 105.677C160.978 105.339 161.657 105.168 162.544 105.164H163.278V104.822C163.278 104.546 163.207 104.325 163.063 104.159C162.923 103.994 162.7 103.911 162.395 103.911C162.126 103.911 161.915 103.975 161.76 104.104C161.609 104.233 161.534 104.409 161.534 104.634H159.938C159.938 104.288 160.045 103.968 160.258 103.673C160.472 103.379 160.774 103.149 161.164 102.983C161.554 102.814 161.992 102.729 162.478 102.729C163.214 102.729 163.797 102.915 164.228 103.287C164.662 103.655 164.879 104.174 164.879 104.844V107.433C164.883 108 164.962 108.429 165.117 108.719V108.813H163.505ZM162.185 107.704C162.421 107.704 162.638 107.652 162.837 107.549C163.035 107.442 163.183 107.301 163.278 107.124V106.097H162.682C161.883 106.097 161.458 106.373 161.407 106.925L161.401 107.019C161.401 107.218 161.471 107.381 161.611 107.51C161.751 107.639 161.942 107.704 162.185 107.704ZM165.857 105.782C165.857 104.851 166.064 104.109 166.48 103.557C166.9 103.005 167.472 102.729 168.197 102.729C168.779 102.729 169.259 102.946 169.638 103.381V100.333H171.239V108.813H169.798L169.721 108.178C169.324 108.675 168.812 108.924 168.186 108.924C167.483 108.924 166.918 108.648 166.491 108.096C166.068 107.54 165.857 106.769 165.857 105.782ZM167.452 105.898C167.452 106.458 167.55 106.886 167.745 107.185C167.94 107.483 168.223 107.632 168.595 107.632C169.088 107.632 169.436 107.424 169.638 107.008V104.651C169.44 104.235 169.095 104.027 168.606 104.027C167.837 104.027 167.452 104.651 167.452 105.898Z" fill="#424242"/>
<rect x="131.44" y="92.5732" width="56.5333" height="25.44" stroke="black" stroke-width="2.82667"/>
</g>
<path d="M239.56 36.7466V36.0399C239.17 36.0399 238.853 36.3563 238.853 36.7466H239.56ZM239.56 105.293V106C239.95 106 240.267 105.684 240.267 105.293H239.56ZM289.733 36.0399H239.56V37.4532H289.733V36.0399ZM238.853 36.7466V105.293H240.267V36.7466H238.853ZM239.56 104.587H189.387V106H239.56V104.587Z" fill="black"/>
<path d="M159.707 148.4V149.107C160.097 149.107 160.414 148.79 160.414 148.4H159.707ZM159.354 148.4V147.693C158.963 147.693 158.647 148.01 158.647 148.4H159.354ZM159 119.427V148.4H160.414V119.427H159ZM159.707 147.693H159.354V149.107H159.707V147.693ZM158.647 148.4V177.373H160.06V148.4H158.647Z" fill="black"/>
<path d="M118.367 105.293V104.587C117.977 104.587 117.66 104.903 117.66 105.293H118.367ZM118.367 191.507V192.213C118.757 192.213 119.074 191.897 119.074 191.507H118.367ZM130.027 104.587H118.367V106H130.027V104.587ZM117.66 105.293V191.507H119.074V105.293H117.66ZM118.367 190.8H106.707V192.213H118.367V190.8Z" fill="black"/>
<path d="M200.693 105.293H201.4C201.4 104.903 201.084 104.587 200.693 104.587V105.293ZM200.693 191.507H199.987C199.987 191.897 200.303 192.213 200.693 192.213V191.507ZM189.387 106H200.693V104.587H189.387V106ZM199.987 105.293V191.507H201.4V105.293H199.987ZM200.693 192.213H212V190.8H200.693V192.213Z" fill="black"/>
<path d="M189.387 192.213H212V190.8H189.387V192.213Z" fill="black"/>
<path d="M106.707 192.213H129.32V190.8H106.707V192.213Z" fill="black"/>
<path d="M375.24 36.7466H375.947C375.947 36.3563 375.631 36.0399 375.24 36.0399V36.7466ZM375.24 101.76H374.534C374.534 102.15 374.85 102.467 375.24 102.467V101.76ZM346.974 37.4532H375.24V36.0399H346.974V37.4532ZM374.534 36.7466V101.76H375.947V36.7466H374.534ZM375.24 102.467H403.507V101.053H375.24V102.467Z" fill="black"/>
<path d="M400.326 101.76V101.053C399.936 101.053 399.62 101.37 399.62 101.76H400.326ZM400.326 191.507V192.213C400.717 192.213 401.033 191.897 401.033 191.507H400.326ZM403.506 101.053H400.326V102.467H403.506V101.053ZM399.62 101.76V191.507H401.033V101.76H399.62ZM400.326 190.8H397.146V192.213H400.326V190.8Z" fill="black"/>
<path d="M433.187 146.633H432.48C432.48 147.024 432.796 147.34 433.187 147.34V146.633ZM440.253 146.633H440.96C440.96 146.243 440.643 145.927 440.253 145.927V146.633ZM432.48 115.893V146.633H433.893V115.893H432.48ZM433.187 147.34H440.253V145.927H433.187V147.34ZM439.547 146.633V177.373H440.96V146.633H439.547Z" fill="black"/>
<path d="M473.113 101.76H473.82C473.82 101.37 473.503 101.053 473.113 101.053V101.76ZM473.113 191.507H472.406C472.406 191.897 472.723 192.213 473.113 192.213V191.507ZM462.866 102.467H473.113V101.053H462.866V102.467ZM472.406 101.76V191.507H473.82V101.76H472.406ZM473.113 192.213H483.36V190.8H473.113V192.213Z" fill="black"/>
<path d="M440.253 216.947H439.546C439.546 217.337 439.863 217.653 440.253 217.653V216.947ZM440.606 216.947H441.313C441.313 216.556 440.997 216.24 440.606 216.24V216.947ZM439.546 205.64V216.947H440.96V205.64H439.546ZM440.253 217.653H440.606V216.24H440.253V217.653ZM439.9 216.947V228.253H441.313V216.947H439.9Z" fill="black"/>
<path d="M505.267 216.947V217.653C505.657 217.653 505.973 217.337 505.973 216.947H505.267ZM503.5 216.947V216.24C503.11 216.24 502.793 216.556 502.793 216.947H503.5ZM504.56 205.64V216.947H505.973V205.64H504.56ZM505.267 216.24H503.5V217.653H505.267V216.24ZM502.793 216.947V228.253H504.207V216.947H502.793Z" fill="black"/>
<path d="M536.714 191.507H537.42C537.42 191.116 537.104 190.8 536.714 190.8V191.507ZM536.714 242.387H536.007C536.007 242.777 536.324 243.093 536.714 243.093V242.387ZM527.174 192.213H536.714V190.8H527.174V192.213ZM536.007 191.507V242.387H537.42V191.507H536.007ZM536.714 243.093H546.254V241.68H536.714V243.093Z" fill="black"/>
<path d="M523.64 243.093H546.253V241.68H523.64V243.093Z" fill="black"/>
<circle cx="-4.23958" cy="427.533" r="176.667" fill="#5758FA"/>
<circle cx="636" cy="-92.5733" r="176.667" fill="#5758FA"/>
</g>
<defs>
<filter id="filter0_d_72_344" x="286.907" y="22.6133" width="60.0669" height="31.0933" filterUnits="userSpaceOnUse" color-interpolation-filters="sRGB">
<feFlood flood-opacity="0" result="BackgroundImageFix"/>
<feColorMatrix in="SourceAlpha" type="matrix" values="0 0 0 0 0 0 0 0 0 0 0 0 0 0 0 0 0 0 127 0" result="hardAlpha"/>
<feOffset dx="-2.82667" dy="2.82667"/>
<feColorMatrix type="matrix" values="0 0 0 0 0.287581 0 0 0 0 0.287581 0 0 0 0 0.287581 0 0 0 1 0"/>
<feBlend mode="normal" in2="BackgroundImageFix" result="effect1_dropShadow_72_344"/>
<feBlend mode="normal" in="SourceGraphic" in2="effect1_dropShadow_72_344" result="shape"/>
</filter>
<filter id="filter1_d_72_344" x="400.68" y="87.6267" width="62.187" height="31.0933" filterUnits="userSpaceOnUse" color-interpolation-filters="sRGB">
<feFlood flood-opacity="0" result="BackgroundImageFix"/>
<feColorMatrix in="SourceAlpha" type="matrix" values="0 0 0 0 0 0 0 0 0 0 0 0 0 0 0 0 0 0 127 0" result="hardAlpha"/>
<feOffset dx="-2.82667" dy="2.82667"/>
<feColorMatrix type="matrix" values="0 0 0 0 0.287581 0 0 0 0 0.287581 0 0 0 0 0.287581 0 0 0 1 0"/>
<feBlend mode="normal" in2="BackgroundImageFix" result="effect1_dropShadow_72_344"/>
<feBlend mode="normal" in="SourceGraphic" in2="effect1_dropShadow_72_344" result="shape"/>
</filter>
<filter id="filter2_d_72_344" x="346.973" y="177.373" width="50.1733" height="31.0933" filterUnits="userSpaceOnUse" color-interpolation-filters="sRGB">
<feFlood flood-opacity="0" result="BackgroundImageFix"/>
<feColorMatrix in="SourceAlpha" type="matrix" values="0 0 0 0 0 0 0 0 0 0 0 0 0 0 0 0 0 0 127 0" result="hardAlpha"/>
<feOffset dx="-2.82667" dy="2.82667"/>
<feColorMatrix type="matrix" values="0 0 0 0 0.287581 0 0 0 0 0.287581 0 0 0 0 0.287581 0 0 0 1 0"/>
<feBlend mode="normal" in2="BackgroundImageFix" result="effect1_dropShadow_72_344"/>
<feBlend mode="normal" in="SourceGraphic" in2="effect1_dropShadow_72_344" result="shape"/>
</filter>
<filter id="filter3_d_72_344" x="416.933" y="177.373" width="43.813" height="31.0933" filterUnits="userSpaceOnUse" color-interpolation-filters="sRGB">
<feFlood flood-opacity="0" result="BackgroundImageFix"/>
<feColorMatrix in="SourceAlpha" type="matrix" values="0 0 0 0 0 0 0 0 0 0 0 0 0 0 0 0 0 0 127 0" result="hardAlpha"/>
<feOffset dx="-2.82667" dy="2.82667"/>
<feColorMatrix type="matrix" values="0 0 0 0 0.287581 0 0 0 0 0.287581 0 0 0 0 0.287581 0 0 0 1 0"/>
<feBlend mode="normal" in2="BackgroundImageFix" result="effect1_dropShadow_72_344"/>
<feBlend mode="normal" in="SourceGraphic" in2="effect1_dropShadow_72_344" result="shape"/>
</filter>
<filter id="filter4_d_72_344" x="417.64" y="228.253" width="43.1069" height="31.0933" filterUnits="userSpaceOnUse" color-interpolation-filters="sRGB">
<feFlood flood-opacity="0" result="BackgroundImageFix"/>
<feColorMatrix in="SourceAlpha" type="matrix" values="0 0 0 0 0 0 0 0 0 0 0 0 0 0 0 0 0 0 127 0" result="hardAlpha"/>
<feOffset dx="-2.82667" dy="2.82667"/>
<feColorMatrix type="matrix" values="0 0 0 0 0.287581 0 0 0 0 0.287581 0 0 0 0 0.287581 0 0 0 1 0"/>
<feBlend mode="normal" in2="BackgroundImageFix" result="effect1_dropShadow_72_344"/>
<feBlend mode="normal" in="SourceGraphic" in2="effect1_dropShadow_72_344" result="shape"/>
</filter>
<filter id="filter5_d_72_344" x="480.534" y="228.253" width="43.1069" height="31.0933" filterUnits="userSpaceOnUse" color-interpolation-filters="sRGB">
<feFlood flood-opacity="0" result="BackgroundImageFix"/>
<feColorMatrix in="SourceAlpha" type="matrix" values="0 0 0 0 0 0 0 0 0 0 0 0 0 0 0 0 0 0 127 0" result="hardAlpha"/>
<feOffset dx="-2.82667" dy="2.82667"/>
<feColorMatrix type="matrix" values="0 0 0 0 0.287581 0 0 0 0 0.287581 0 0 0 0 0.287581 0 0 0 1 0"/>
<feBlend mode="normal" in2="BackgroundImageFix" result="effect1_dropShadow_72_344"/>
<feBlend mode="normal" in="SourceGraphic" in2="effect1_dropShadow_72_344" result="shape"/>
</filter>
<filter id="filter6_d_72_344" x="543.426" y="228.253" width="43.1069" height="31.0933" filterUnits="userSpaceOnUse" color-interpolation-filters="sRGB">
<feFlood flood-opacity="0" result="BackgroundImageFix"/>
<feColorMatrix in="SourceAlpha" type="matrix" values="0 0 0 0 0 0 0 0 0 0 0 0 0 0 0 0 0 0 127 0" result="hardAlpha"/>
<feOffset dx="-2.82667" dy="2.82667"/>
<feColorMatrix type="matrix" values="0 0 0 0 0.287581 0 0 0 0 0.287581 0 0 0 0 0.287581 0 0 0 1 0"/>
<feBlend mode="normal" in2="BackgroundImageFix" result="effect1_dropShadow_72_344"/>
<feBlend mode="normal" in="SourceGraphic" in2="effect1_dropShadow_72_344" result="shape"/>
</filter>
<filter id="filter7_d_72_344" x="480.534" y="177.373" width="46.6401" height="31.0933" filterUnits="userSpaceOnUse" color-interpolation-filters="sRGB">
<feFlood flood-opacity="0" result="BackgroundImageFix"/>
<feColorMatrix in="SourceAlpha" type="matrix" values="0 0 0 0 0 0 0 0 0 0 0 0 0 0 0 0 0 0 127 0" result="hardAlpha"/>
<feOffset dx="-2.82667" dy="2.82667"/>
<feColorMatrix type="matrix" values="0 0 0 0 0.287581 0 0 0 0 0.287581 0 0 0 0 0.287581 0 0 0 1 0"/>
<feBlend mode="normal" in2="BackgroundImageFix" result="effect1_dropShadow_72_344"/>
<feBlend mode="normal" in="SourceGraphic" in2="effect1_dropShadow_72_344" result="shape"/>
</filter>
<filter id="filter8_d_72_344" x="50.1733" y="177.373" width="56.5337" height="31.0933" filterUnits="userSpaceOnUse" color-interpolation-filters="sRGB">
<feFlood flood-opacity="0" result="BackgroundImageFix"/>
<feColorMatrix in="SourceAlpha" type="matrix" values="0 0 0 0 0 0 0 0 0 0 0 0 0 0 0 0 0 0 127 0" result="hardAlpha"/>
<feOffset dx="-2.82667" dy="2.82667"/>
<feColorMatrix type="matrix" values="0 0 0 0 0.287581 0 0 0 0 0.287581 0 0 0 0 0.287581 0 0 0 1 0"/>
<feBlend mode="normal" in2="BackgroundImageFix" result="effect1_dropShadow_72_344"/>
<feBlend mode="normal" in="SourceGraphic" in2="effect1_dropShadow_72_344" result="shape"/>
</filter>
<filter id="filter9_d_72_344" x="126.494" y="177.373" width="62.8931" height="31.0933" filterUnits="userSpaceOnUse" color-interpolation-filters="sRGB">
<feFlood flood-opacity="0" result="BackgroundImageFix"/>
<feColorMatrix in="SourceAlpha" type="matrix" values="0 0 0 0 0 0 0 0 0 0 0 0 0 0 0 0 0 0 127 0" result="hardAlpha"/>
<feOffset dx="-2.82667" dy="2.82667"/>
<feColorMatrix type="matrix" values="0 0 0 0 0.287581 0 0 0 0 0.287581 0 0 0 0 0.287581 0 0 0 1 0"/>
<feBlend mode="normal" in2="BackgroundImageFix" result="effect1_dropShadow_72_344"/>
<feBlend mode="normal" in="SourceGraphic" in2="effect1_dropShadow_72_344" result="shape"/>
</filter>
<filter id="filter10_d_72_344" x="209.173" y="177.373" width="62.8931" height="31.0933" filterUnits="userSpaceOnUse" color-interpolation-filters="sRGB">
<feFlood flood-opacity="0" result="BackgroundImageFix"/>
<feColorMatrix in="SourceAlpha" type="matrix" values="0 0 0 0 0 0 0 0 0 0 0 0 0 0 0 0 0 0 127 0" result="hardAlpha"/>
<feOffset dx="-2.82667" dy="2.82667"/>
<feColorMatrix type="matrix" values="0 0 0 0 0.287581 0 0 0 0 0.287581 0 0 0 0 0.287581 0 0 0 1 0"/>
<feBlend mode="normal" in2="BackgroundImageFix" result="effect1_dropShadow_72_344"/>
<feBlend mode="normal" in="SourceGraphic" in2="effect1_dropShadow_72_344" result="shape"/>
</filter>
<filter id="filter11_d_72_344" x="127.2" y="91.1599" width="62.187" height="31.0933" filterUnits="userSpaceOnUse" color-interpolation-filters="sRGB">
<feFlood flood-opacity="0" result="BackgroundImageFix"/>
<feColorMatrix in="SourceAlpha" type="matrix" values="0 0 0 0 0 0 0 0 0 0 0 0 0 0 0 0 0 0 127 0" result="hardAlpha"/>
<feOffset dx="-2.82667" dy="2.82667"/>
<feColorMatrix type="matrix" values="0 0 0 0 0.287581 0 0 0 0 0.287581 0 0 0 0 0.287581 0 0 0 1 0"/>
<feBlend mode="normal" in2="BackgroundImageFix" result="effect1_dropShadow_72_344"/>
<feBlend mode="normal" in="SourceGraphic" in2="effect1_dropShadow_72_344" result="shape"/>
</filter>
<clipPath id="clip0_72_344">
<rect width="636" height="332.133" fill="white"/>
</clipPath>
</defs>
</svg>
